# This file uses centimeters as units for non-parametric coordinates.

mtllib binders.mtl
g default
v 0.450836 8.229134 -5.239651
v 0.450836 10.807907 -5.239651
v 0.635040 8.229126 -5.249170
v 0.635040 10.807907 -5.249171
v 0.423309 8.229126 -3.197039
v 0.423309 10.807907 -3.197040
v 0.873016 8.229126 -3.220283
v 0.873016 10.807907 -3.220283
vt 0.975783 0.026814
vt 0.975783 0.477107
vt 0.621509 0.477107
vt 0.621509 0.026814
vt 0.974177 0.029323
vt 0.974177 0.479616
vt 0.617507 0.479616
vt 0.617507 0.029324
vt 0.712992 0.938423
vt 0.698014 0.545666
vt 0.784623 0.548005
vt 0.748468 0.939381
vt 0.783548 0.536365
vt 0.753281 0.928240
vt 0.717794 0.927816
vt 0.696914 0.535328
vt 0.532607 0.952217
vt 0.532607 0.513997
vt 0.563909 0.513997
vt 0.563909 0.952219
vt 0.595050 0.021416
vt 0.595050 0.471710
vt 0.516524 0.471710
vt 0.516524 0.021416
vn -0.051619 0.000000 -0.998667
vn -0.051619 0.000000 -0.998667
vn -0.051619 0.000000 -0.998667
vn -0.051619 0.000000 -0.998667
vn 0.993191 -0.000000 -0.116497
vn 0.993191 -0.000000 -0.116497
vn 0.993191 -0.000000 -0.116497
vn 0.993191 -0.000000 -0.116497
vn 0.051619 0.000000 0.998667
vn 0.051619 0.000000 0.998667
vn 0.051619 0.000000 0.998667
vn 0.051619 0.000000 0.998667
vn -0.999909 0.000000 -0.013478
vn -0.999909 0.000000 -0.013478
vn -0.999909 0.000000 -0.013478
vn -0.999909 0.000000 -0.013478
vn -0.000000 -1.000000 0.000000
vn -0.000000 -1.000000 0.000000
vn -0.000000 -1.000000 0.000000
vn -0.000000 -1.000000 0.000000
vn 0.000000 1.000000 -0.000000
vn 0.000000 1.000000 -0.000000
vn 0.000000 1.000000 -0.000000
vn 0.000000 1.000000 -0.000000
s off
g binder_1_1 folders desk_nice
usemtl BindersSG
f 1/17/1 2/18/2 4/19/3 3/20/4
f 3/1/5 4/2/6 8/3/7 7/4/8
f 7/21/9 8/22/10 6/23/11 5/24/12
f 5/5/13 6/6/14 2/7/15 1/8/16
f 3/9/17 7/10/18 5/11/19 1/12/20
f 8/13/21 4/14/22 2/15/23 6/16/24
g default
v -1.691437 8.229134 -5.128922
v -1.691437 10.807907 -5.128922
v -1.507233 8.229134 -5.138441
v -1.507233 10.807907 -5.138440
v -1.718964 8.229134 -3.086305
v -1.718964 10.807907 -3.086307
v -1.269257 8.229134 -3.109553
v -1.269257 10.807907 -3.109552
vt 0.478096 0.041091
vt 0.478095 0.462746
vt 0.146352 0.462746
vt 0.146352 0.041091
vt 0.478219 0.032195
vt 0.478219 0.472831
vt 0.129197 0.472831
vt 0.129197 0.032195
vt 0.717467 0.924099
vt 0.695647 0.531662
vt 0.782284 0.532491
vt 0.752954 0.924439
vt 0.781574 0.533689
vt 0.757474 0.925993
vt 0.721985 0.926127
vt 0.694933 0.534015
vt 0.529179 0.922886
vt 0.529179 0.542611
vt 0.556342 0.542611
vt 0.556342 0.922886
vt 0.099700 0.022127
vt 0.099700 0.478025
vt 0.017240 0.478025
vt 0.017240 0.022127
vn -0.051619 0.000000 -0.998667
vn -0.051619 0.000000 -0.998667
vn -0.051619 0.000000 -0.998667
vn -0.051619 0.000000 -0.998667
vn 0.993191 -0.000000 -0.116497
vn 0.993191 -0.000000 -0.116497
vn 0.993191 -0.000000 -0.116497
vn 0.993191 -0.000000 -0.116497
vn 0.051619 0.000000 0.998667
vn 0.051619 0.000000 0.998667
vn 0.051619 0.000000 0.998667
vn 0.051619 0.000000 0.998667
vn -0.999909 0.000000 -0.013478
vn -0.999909 0.000000 -0.013478
vn -0.999909 0.000000 -0.013478
vn -0.999909 0.000000 -0.013478
vn -0.000000 -1.000000 -0.000000
vn -0.000000 -1.000000 -0.000000
vn -0.000000 -1.000000 -0.000000
vn -0.000000 -1.000000 -0.000000
vn 0.000000 1.000000 0.000000
vn 0.000000 1.000000 0.000000
vn 0.000000 1.000000 0.000000
vn 0.000000 1.000000 0.000000
s off
g folders desk_nice binder_1_2
usemtl BindersSG
f 9/41/25 10/42/26 12/43/27 11/44/28
f 11/25/29 12/26/30 16/27/31 15/28/32
f 15/45/33 16/46/34 14/47/35 13/48/36
f 13/29/37 14/30/38 10/31/39 9/32/40
f 11/33/41 15/34/42 13/35/43 9/36/44
f 16/37/45 12/38/46 10/39/47 14/40/48
g default
v -2.764740 8.229134 -5.073444
v -2.764740 10.807907 -5.073444
v -2.580597 8.229134 -5.082964
v -2.580597 10.807907 -5.082962
v -2.792267 8.229134 -3.030828
v -2.792267 10.807907 -3.030832
v -2.342621 8.229134 -3.054071
v -2.342621 10.807907 -3.054075
vt 0.982969 0.017787
vt 0.982969 0.487396
vt 0.613497 0.487396
vt 0.613497 0.017787
vt 0.984865 0.015126
vt 0.984864 0.484735
vt 0.612893 0.484735
vt 0.612893 0.015126
vt 0.713612 0.929597
vt 0.697399 0.536887
vt 0.784003 0.538953
vt 0.749079 0.930443
vt 0.781916 0.535339
vt 0.752867 0.938814
vt 0.716355 0.938567
vt 0.692760 0.534736
vt 0.527807 0.952955
vt 0.527807 0.526806
vt 0.558237 0.526806
vt 0.558237 0.952955
vt 0.598153 0.014064
vt 0.598153 0.486088
vt 0.515849 0.486088
vt 0.515849 0.014064
vn -0.051619 0.000000 -0.998667
vn -0.051619 0.000000 -0.998667
vn -0.051619 0.000000 -0.998667
vn -0.051619 0.000000 -0.998667
vn 0.993191 -0.000000 -0.116497
vn 0.993191 -0.000000 -0.116497
vn 0.993191 -0.000000 -0.116497
vn 0.993191 -0.000000 -0.116497
vn 0.051619 0.000000 0.998667
vn 0.051619 0.000000 0.998667
vn 0.051619 0.000000 0.998667
vn 0.051619 0.000000 0.998667
vn -0.999909 0.000000 -0.013478
vn -0.999909 0.000000 -0.013478
vn -0.999909 0.000000 -0.013478
vn -0.999909 0.000000 -0.013478
vn -0.000000 -1.000000 0.000000
vn -0.000000 -1.000000 0.000000
vn -0.000000 -1.000000 0.000000
vn -0.000000 -1.000000 0.000000
vn 0.000000 1.000000 -0.000000
vn 0.000000 1.000000 -0.000000
vn 0.000000 1.000000 -0.000000
vn 0.000000 1.000000 -0.000000
s off
g folders desk_nice binder_1_3
usemtl BindersSG
f 17/65/49 18/66/50 20/67/51 19/68/52
f 19/49/53 20/50/54 24/51/55 23/52/56
f 23/69/57 24/70/58 22/71/59 21/72/60
f 21/53/61 22/54/62 18/55/63 17/56/64
f 19/57/65 23/58/66 21/59/67 17/60/68
f 24/61/69 20/62/70 18/63/71 22/64/72
g default
v -1.178131 8.229134 -5.155455
v -1.178131 10.807907 -5.155455
v -0.993927 8.229126 -5.164972
v -0.993927 10.807907 -5.164972
v -1.205658 8.229126 -3.112844
v -1.205658 10.807907 -3.112844
v -0.755951 8.229134 -3.136085
v -0.755951 10.807907 -3.136086
vt 0.466269 0.532791
vt 0.466269 0.971012
vt 0.121494 0.971012
vt 0.121493 0.532792
vt 0.464490 0.536850
vt 0.464490 0.962999
vt 0.126944 0.962999
vt 0.126944 0.536851
vt 0.728142 0.918723
vt 0.700494 0.526654
vt 0.787133 0.526197
vt 0.763631 0.918536
vt 0.779641 0.530250
vt 0.753073 0.922393
vt 0.717585 0.922304
vt 0.693000 0.530032
vt 0.526371 0.949578
vt 0.526371 0.521015
vt 0.556984 0.521015
vt 0.556984 0.949579
vt 0.097202 0.525180
vt 0.097202 0.968229
vt 0.019939 0.968229
vt 0.019939 0.525179
vn -0.051619 0.000000 -0.998667
vn -0.051619 0.000000 -0.998667
vn -0.051619 0.000000 -0.998667
vn -0.051619 0.000000 -0.998667
vn 0.993191 -0.000000 -0.116497
vn 0.993191 -0.000000 -0.116497
vn 0.993191 -0.000000 -0.116497
vn 0.993191 -0.000000 -0.116497
vn 0.051619 0.000000 0.998667
vn 0.051619 0.000000 0.998667
vn 0.051619 0.000000 0.998667
vn 0.051619 0.000000 0.998667
vn -0.999909 0.000000 -0.013478
vn -0.999909 0.000000 -0.013478
vn -0.999909 0.000000 -0.013478
vn -0.999909 0.000000 -0.013478
vn -0.000000 -1.000000 -0.000000
vn -0.000000 -1.000000 -0.000000
vn -0.000000 -1.000000 -0.000000
vn -0.000000 -1.000000 -0.000000
vn 0.000000 1.000000 0.000000
vn 0.000000 1.000000 0.000000
vn 0.000000 1.000000 0.000000
vn 0.000000 1.000000 0.000000
s off
g folders desk_nice binder_1_4
usemtl BindersSG
f 25/89/73 26/90/74 28/91/75 27/92/76
f 27/73/77 28/74/78 32/75/79 31/76/80
f 31/93/81 32/94/82 30/95/83 29/96/84
f 29/77/85 30/78/86 26/79/87 25/80/88
f 27/81/89 31/82/90 29/83/91 25/84/92
f 32/85/93 28/86/94 26/87/95 30/88/96
g default
v -0.062500 8.229134 -5.213111
v -0.062500 10.807907 -5.213111
v 0.121704 8.229126 -5.222632
v 0.121704 10.807907 -5.222631
v -0.090027 8.229134 -3.170500
v -0.090027 10.807907 -3.170500
v 0.359680 8.229134 -3.193743
v 0.359680 10.807907 -3.193743
vt 0.478761 0.027344
vt 0.478761 0.472809
vt 0.128285 0.472809
vt 0.128285 0.027345
vt 0.479413 0.027803
vt 0.479413 0.470853
vt 0.128479 0.470853
vt 0.128479 0.027803
vt 0.729452 0.922973
vt 0.699197 0.531096
vt 0.785832 0.530062
vt 0.764939 0.922550
vt 0.786445 0.535162
vt 0.750336 0.926543
vt 0.714860 0.925589
vt 0.699835 0.532833
vt 0.527078 0.955840
vt 0.527078 0.510376
vt 0.558898 0.510376
vt 0.558898 0.955841
vt 0.099043 0.021804
vt 0.099043 0.464854
vt 0.021780 0.464854
vt 0.021780 0.021804
vn -0.051619 0.000000 -0.998667
vn -0.051619 0.000000 -0.998667
vn -0.051619 0.000000 -0.998667
vn -0.051619 0.000000 -0.998667
vn 0.993191 -0.000000 -0.116497
vn 0.993191 -0.000000 -0.116497
vn 0.993191 -0.000000 -0.116497
vn 0.993191 -0.000000 -0.116497
vn 0.051619 0.000000 0.998667
vn 0.051619 0.000000 0.998667
vn 0.051619 0.000000 0.998667
vn 0.051619 0.000000 0.998667
vn -0.999909 0.000000 -0.013478
vn -0.999909 0.000000 -0.013478
vn -0.999909 0.000000 -0.013478
vn -0.999909 0.000000 -0.013478
vn -0.000000 -1.000000 -0.000000
vn -0.000000 -1.000000 -0.000000
vn -0.000000 -1.000000 -0.000000
vn -0.000000 -1.000000 -0.000000
vn 0.000000 1.000000 0.000000
vn 0.000000 1.000000 0.000000
vn 0.000000 1.000000 0.000000
vn 0.000000 1.000000 0.000000
s off
g folders desk_nice binder_1_5
usemtl BindersSG
f 33/113/97 34/114/98 36/115/99 35/116/100
f 35/97/101 36/98/102 40/99/103 39/100/104
f 39/117/105 40/118/106 38/119/107 37/120/108
f 37/101/109 38/102/110 34/103/111 33/104/112
f 35/105/113 39/106/114 37/107/115 33/108/116
f 40/109/117 36/110/118 34/111/119 38/112/120
g default
v 1.017883 8.229134 -5.268954
v 1.017883 10.807907 -5.268954
v 1.202026 8.229134 -5.278473
v 1.202026 10.807907 -5.278473
v 0.990356 8.229134 -3.226342
v 0.990356 10.807907 -3.226342
v 1.440063 8.229134 -3.249585
v 1.440063 10.807907 -3.249585
vt 0.476198 0.521464
vt 0.476198 0.969343
vt 0.123822 0.969343
vt 0.123822 0.521464
vt 0.459622 0.539155
vt 0.459622 0.967719
vt 0.120163 0.967719
vt 0.120163 0.539155
vt 0.723433 0.931500
vt 0.705156 0.538881
vt 0.791783 0.540495
vt 0.758904 0.932161
vt 0.777879 0.535413
vt 0.758999 0.928004
vt 0.723527 0.928611
vt 0.691250 0.536894
vt 0.533037 0.944426
vt 0.533037 0.518277
vt 0.563467 0.518277
vt 0.563467 0.944426
vt 0.096210 0.522013
vt 0.096210 0.972306
vt 0.017684 0.972306
vt 0.017684 0.522013
vn -0.051619 0.000000 -0.998667
vn -0.051619 0.000000 -0.998667
vn -0.051619 0.000000 -0.998667
vn -0.051619 0.000000 -0.998667
vn 0.993191 -0.000000 -0.116497
vn 0.993191 -0.000000 -0.116497
vn 0.993191 -0.000000 -0.116497
vn 0.993191 -0.000000 -0.116497
vn 0.051619 0.000000 0.998667
vn 0.051619 0.000000 0.998667
vn 0.051619 0.000000 0.998667
vn 0.051619 0.000000 0.998667
vn -0.999909 0.000000 -0.013478
vn -0.999909 0.000000 -0.013478
vn -0.999909 0.000000 -0.013478
vn -0.999909 0.000000 -0.013478
vn -0.000000 -1.000000 0.000000
vn -0.000000 -1.000000 0.000000
vn -0.000000 -1.000000 0.000000
vn -0.000000 -1.000000 0.000000
vn 0.000000 1.000000 -0.000000
vn 0.000000 1.000000 -0.000000
vn 0.000000 1.000000 -0.000000
vn 0.000000 1.000000 -0.000000
s off
g folders desk_nice binder_1_6
usemtl BindersSG
f 41/137/121 42/138/122 44/139/123 43/140/124
f 43/121/125 44/122/126 48/123/127 47/124/128
f 47/141/129 48/142/130 46/143/131 45/144/132
f 45/125/133 46/126/134 42/127/135 41/128/136
f 43/129/137 47/130/138 45/131/139 41/132/140
f 48/133/141 44/134/142 42/135/143 46/136/144
