# This file uses centimeters as units for non-parametric coordinates.

mtllib second pc screen.mtl
g default
v -7.425355 11.984036 0.543711
v -7.451818 12.318905 0.498422
v -7.612854 12.293801 0.557563
v -7.607677 11.974368 0.611769
v -7.469675 12.439693 0.447031
v -7.606662 12.420029 0.519172
v -6.394165 12.321903 -0.210663
v -6.422937 12.446094 -0.252797
v -6.365742 11.984974 -0.169042
v -7.417909 11.710938 0.553599
v -6.358759 11.710934 -0.158815
v -7.606269 11.710698 0.626500
v -7.413142 11.288938 0.559926
v -7.605124 11.288980 0.638486
v -6.354304 11.288940 -0.152293
v -7.606236 10.867311 0.626838
v -7.417907 10.866929 0.553593
v -6.358759 10.866945 -0.158815
v -7.608006 10.603433 0.608313
v -7.425350 10.593849 0.543702
v -6.365742 10.592911 -0.169041
v -7.451824 10.258940 0.498426
v -6.394165 10.255982 -0.210662
v -7.612854 10.284067 0.557564
v -7.606661 10.157856 0.519174
v -7.469676 10.138187 0.447041
v -6.422937 10.131792 -0.252796
v -5.348780 10.258982 -0.937716
v -5.316228 10.593849 -0.896585
v -5.390148 10.138192 -0.973051
v -5.234476 10.284084 -1.066601
v -5.272488 10.157856 -1.074805
v -5.186431 10.603515 -1.042333
v -5.173283 10.867179 -1.035691
v -5.309728 10.866942 -0.886051
v -5.305568 11.288943 -0.879309
v -5.162065 11.288911 -1.030025
v -5.309729 11.710947 -0.886052
v -5.172186 11.710600 -1.035138
v -5.188894 11.974438 -1.043578
v -5.316228 11.984036 -0.896586
v -5.348780 12.318905 -0.937717
v -5.234477 12.293801 -1.066602
v -5.390148 12.439693 -0.973052
v -5.272489 12.420029 -1.074806
vt 0.096117 0.727011
vt 0.097865 0.835001
vt 0.042783 0.830031
vt 0.503640 0.725359
vt 0.051659 0.871772
vt 0.033996 0.725926
vt 0.095560 0.639833
vt 0.504188 0.834227
vt 0.101862 0.877033
vt 0.503202 0.637784
vt 0.910504 0.830920
vt 0.031049 0.640870
vt 0.094883 0.505124
vt 0.910844 0.635750
vt 0.504404 0.877087
vt 0.906933 0.872990
vt 0.911136 0.722922
vt 0.502530 0.503084
vt 0.910177 0.501042
vt 0.957320 0.867201
vt 0.965765 0.825368
vt 0.028708 0.505465
vt 0.501858 0.368383
vt 0.975641 0.636114
vt 0.973193 0.721334
vt 0.029669 0.370057
vt 0.094220 0.370414
vt 0.976567 0.500702
vt 0.501420 0.280810
vt 0.909496 0.366335
vt 0.974177 0.365285
vt 0.032106 0.284823
vt 0.093931 0.283245
vt 0.094559 0.175235
vt 0.908938 0.279160
vt 0.971235 0.280228
vt 0.039528 0.180790
vt 0.500873 0.171942
vt 0.907200 0.171171
vt 0.047975 0.138960
vt 0.098128 0.133177
vt 0.962510 0.176148
vt 0.500657 0.129082
vt 0.903202 0.129138
vt 0.953640 0.134408
vn 0.455851 0.106137 0.883705
vn 0.437844 0.271089 0.857207
vn 0.315134 0.207254 0.926140
vn 0.315134 0.207254 0.926140
vn 0.347550 0.105547 0.931702
vn 0.455851 0.106137 0.883705
vn 0.452899 0.403230 0.795165
vn 0.334207 0.324662 0.884817
vn 0.437844 0.271089 0.857207
vn 0.334207 0.324662 0.884817
vn 0.315134 0.207254 0.926140
vn 0.437844 0.271089 0.857207
vn 0.437844 0.271089 0.857207
vn 0.546055 0.271072 0.792682
vn 0.452899 0.403230 0.795165
vn 0.524502 0.381527 0.761141
vn 0.452899 0.403230 0.795165
vn 0.546055 0.271072 0.792682
vn 0.455851 0.106137 0.883705
vn 0.564450 0.098334 0.819589
vn 0.437844 0.271089 0.857207
vn 0.546055 0.271072 0.792682
vn 0.437844 0.271089 0.857207
vn 0.564450 0.098334 0.819589
vn 0.564450 0.098334 0.819589
vn 0.455851 0.106137 0.883705
vn 0.465931 0.035318 0.884116
vn 0.564450 0.098334 0.819589
vn 0.465931 0.035318 0.884116
vn 0.566828 0.035280 0.823080
vn 0.455851 0.106137 0.883705
vn 0.347550 0.105547 0.931702
vn 0.465931 0.035318 0.884116
vn 0.347550 0.105547 0.931702
vn 0.365108 0.043030 0.929970
vn 0.465931 0.035318 0.884116
vn 0.473092 0.003906 0.881004
vn 0.465931 0.035318 0.884116
vn 0.365108 0.043030 0.929970
vn 0.365108 0.043030 0.929970
vn 0.379656 0.003929 0.925119
vn 0.473092 0.003906 0.881004
vn 0.566828 0.035280 0.823080
vn 0.465931 0.035318 0.884116
vn 0.473092 0.003906 0.881004
vn 0.566828 0.035280 0.823080
vn 0.473092 0.003906 0.881004
vn 0.567176 0.003930 0.823587
vn 0.379656 0.003929 0.925119
vn 0.372199 -0.043097 0.927152
vn 0.473092 0.003906 0.881004
vn 0.473092 0.003906 0.881004
vn 0.372199 -0.043097 0.927152
vn 0.466062 -0.027465 0.884326
vn 0.466062 -0.027465 0.884326
vn 0.566972 -0.027425 0.823280
vn 0.473092 0.003906 0.881004
vn 0.567176 0.003930 0.823587
vn 0.473092 0.003906 0.881004
vn 0.566972 -0.027425 0.823280
vn 0.466062 -0.027465 0.884326
vn 0.372199 -0.043097 0.927152
vn 0.338841 -0.098355 0.935689
vn 0.466062 -0.027465 0.884326
vn 0.338841 -0.098355 0.935689
vn 0.449254 -0.098292 0.887980
vn 0.566972 -0.027425 0.823280
vn 0.466062 -0.027465 0.884326
vn 0.564874 -0.090528 0.820197
vn 0.449254 -0.098292 0.887980
vn 0.564874 -0.090528 0.820197
vn 0.466062 -0.027465 0.884326
vn 0.564874 -0.090528 0.820197
vn 0.449254 -0.098292 0.887980
vn 0.438784 -0.263818 0.858993
vn 0.564874 -0.090528 0.820197
vn 0.438784 -0.263818 0.858993
vn 0.547183 -0.263804 0.794354
vn 0.338841 -0.098355 0.935689
vn 0.316142 -0.192220 0.929035
vn 0.449254 -0.098292 0.887980
vn 0.449254 -0.098292 0.887980
vn 0.316142 -0.192220 0.929035
vn 0.438784 -0.263818 0.858993
vn 0.438784 -0.263818 0.858993
vn 0.316142 -0.192220 0.929035
vn 0.335091 -0.317618 0.887036
vn 0.438784 -0.263818 0.858993
vn 0.335091 -0.317618 0.887036
vn 0.454368 -0.396595 0.797660
vn 0.547183 -0.263804 0.794354
vn 0.438784 -0.263818 0.858993
vn 0.454368 -0.396595 0.797660
vn 0.547183 -0.263804 0.794354
vn 0.454368 -0.396595 0.797660
vn 0.526096 -0.374777 0.763391
vn 0.547183 -0.263804 0.794354
vn 0.646253 -0.263552 0.716169
vn 0.564874 -0.090528 0.820197
vn 0.663543 -0.098285 0.741654
vn 0.564874 -0.090528 0.820197
vn 0.646253 -0.263552 0.716169
vn 0.526096 -0.374777 0.763391
vn 0.583702 -0.396380 0.708643
vn 0.547183 -0.263804 0.794354
vn 0.646253 -0.263552 0.716169
vn 0.547183 -0.263804 0.794354
vn 0.583702 -0.396380 0.708643
vn 0.754014 -0.199360 0.625874
vn 0.646253 -0.263552 0.716169
vn 0.709470 -0.317045 0.629392
vn 0.646253 -0.263552 0.716169
vn 0.583702 -0.396380 0.708643
vn 0.709470 -0.317045 0.629392
vn 0.754014 -0.199360 0.625874
vn 0.746959 -0.097608 0.657666
vn 0.663543 -0.098285 0.741654
vn 0.663543 -0.098285 0.741654
vn 0.646253 -0.263552 0.716169
vn 0.754014 -0.199360 0.625874
vn 0.738688 -0.035152 0.673130
vn 0.659936 -0.027478 0.750819
vn 0.746959 -0.097608 0.657666
vn 0.659936 -0.027478 0.750819
vn 0.663543 -0.098285 0.741654
vn 0.746959 -0.097608 0.657666
vn 0.659936 -0.027478 0.750819
vn 0.566972 -0.027425 0.823280
vn 0.564874 -0.090528 0.820197
vn 0.659936 -0.027478 0.750819
vn 0.564874 -0.090528 0.820197
vn 0.663543 -0.098285 0.741654
vn 0.654309 0.003928 0.756217
vn 0.567176 0.003930 0.823587
vn 0.566972 -0.027425 0.823280
vn 0.654309 0.003928 0.756217
vn 0.566972 -0.027425 0.823280
vn 0.659936 -0.027478 0.750819
vn 0.738688 -0.035152 0.673130
vn 0.728770 0.003914 0.684747
vn 0.654309 0.003928 0.756217
vn 0.654309 0.003928 0.756217
vn 0.659936 -0.027478 0.750819
vn 0.738688 -0.035152 0.673130
vn 0.567176 0.003930 0.823587
vn 0.654309 0.003928 0.756217
vn 0.566828 0.035280 0.823080
vn 0.659754 0.035286 0.750653
vn 0.566828 0.035280 0.823080
vn 0.654309 0.003928 0.756217
vn 0.659754 0.035286 0.750653
vn 0.654309 0.003928 0.756217
vn 0.733046 0.050798 0.678279
vn 0.733046 0.050798 0.678279
vn 0.654309 0.003928 0.756217
vn 0.728770 0.003914 0.684747
vn 0.752584 0.105899 0.649926
vn 0.668800 0.105938 0.735855
vn 0.659754 0.035286 0.750653
vn 0.752584 0.105899 0.649926
vn 0.659754 0.035286 0.750653
vn 0.733046 0.050798 0.678279
vn 0.644889 0.270846 0.714675
vn 0.668800 0.105938 0.735855
vn 0.753989 0.199369 0.625901
vn 0.753989 0.199369 0.625901
vn 0.668800 0.105938 0.735855
vn 0.752584 0.105899 0.649926
vn 0.644889 0.270846 0.714675
vn 0.546055 0.271072 0.792682
vn 0.564450 0.098334 0.819589
vn 0.644889 0.270846 0.714675
vn 0.564450 0.098334 0.819589
vn 0.668800 0.105938 0.735855
vn 0.566828 0.035280 0.823080
vn 0.659754 0.035286 0.750653
vn 0.564450 0.098334 0.819589
vn 0.668800 0.105938 0.735855
vn 0.564450 0.098334 0.819589
vn 0.659754 0.035286 0.750653
vn 0.581887 0.402951 0.706427
vn 0.524502 0.381527 0.761141
vn 0.546055 0.271072 0.792682
vn 0.581887 0.402951 0.706427
vn 0.546055 0.271072 0.792682
vn 0.644889 0.270846 0.714675
vn 0.707688 0.324072 0.627818
vn 0.581887 0.402951 0.706427
vn 0.644889 0.270846 0.714675
vn 0.644889 0.270846 0.714675
vn 0.753989 0.199369 0.625901
vn 0.707688 0.324072 0.627818
s off
g second_pc_screen Computer_3 Desk_OG1
usemtl SM_Computer_AFBXASC046moSG1
f 1/1/1 2/2/2 3/3/3
f 3/3/4 4/6/5 1/1/6
f 5/9/7 6/5/8 2/2/9
f 6/5/10 3/3/11 2/2/12
f 2/2/13 7/8/14 5/9/15
f 8/15/16 5/9/17 7/8/18
f 1/1/19 9/4/20 2/2/21
f 7/8/22 2/2/23 9/4/24
f 9/4/25 1/1/26 10/7/27
f 9/4/28 10/7/29 11/10/30
f 1/1/31 4/6/32 10/7/33
f 4/6/34 12/12/35 10/7/36
f 13/13/37 10/7/38 12/12/39
f 12/12/40 14/22/41 13/13/42
f 11/10/43 10/7/44 13/13/45
f 11/10/46 13/13/47 15/18/48
f 14/22/49 16/26/50 13/13/51
f 13/13/52 16/26/53 17/27/54
f 17/27/55 18/23/56 13/13/57
f 15/18/58 13/13/59 18/23/60
f 17/27/61 16/26/62 19/32/63
f 17/27/64 19/32/65 20/33/66
f 18/23/67 17/27/68 21/29/69
f 20/33/70 21/29/71 17/27/72
f 21/29/73 20/33/74 22/34/75
f 21/29/76 22/34/77 23/38/78
f 19/32/79 24/37/80 20/33/81
f 20/33/82 24/37/83 22/34/84
f 22/34/85 24/37/86 25/40/87
f 22/34/88 25/40/89 26/41/90
f 23/38/91 22/34/92 26/41/93
f 23/38/94 26/41/95 27/43/96
f 23/38/97 28/39/98 21/29/99
f 29/35/100 21/29/101 28/39/102
f 27/43/103 30/44/104 23/38/105
f 28/39/106 23/38/107 30/44/108
f 31/42/109 28/39/110 32/45/111
f 28/39/112 30/44/113 32/45/114
f 31/42/115 33/36/116 29/35/117
f 29/35/118 28/39/119 31/42/120
f 34/31/121 35/30/122 33/36/123
f 35/30/124 29/35/125 33/36/126
f 35/30/127 18/23/128 21/29/129
f 35/30/130 21/29/131 29/35/132
f 36/19/133 15/18/134 18/23/135
f 36/19/136 18/23/137 35/30/138
f 34/31/139 37/28/140 36/19/141
f 36/19/142 35/30/143 34/31/144
f 15/18/145 36/19/146 11/10/147
f 38/14/148 11/10/149 36/19/150
f 38/14/151 36/19/152 39/24/153
f 39/24/154 36/19/155 37/28/156
f 40/25/157 41/17/158 38/14/159
f 40/25/160 38/14/161 39/24/162
f 42/11/163 41/17/164 43/21/165
f 43/21/166 41/17/167 40/25/168
f 42/11/169 7/8/170 9/4/171
f 42/11/172 9/4/173 41/17/174
f 11/10/175 38/14/176 9/4/177
f 41/17/178 9/4/179 38/14/180
f 44/16/181 8/15/182 7/8/183
f 44/16/184 7/8/185 42/11/186
f 45/20/187 44/16/188 42/11/189
f 42/11/190 43/21/191 45/20/192
